<svg xmlns="http://www.w3.org/2000/svg" style="display:none">
  <defs>
    <!-- Dashboard -->
    <symbol id="icon-dashboard" viewBox="0 0 24 24" fill="none" stroke="currentColor" stroke-width="2" stroke-linecap="round" stroke-linejoin="round">
      <rect x="3" y="3" width="7" height="7"/>
      <rect x="14" y="3" width="7" height="7"/>
      <rect x="3" y="14" width="7" height="7"/>
      <rect x="14" y="14" width="7" height="7"/>
    </symbol>

    <!-- VPS / Server -->
    <symbol id="icon-server" viewBox="0 0 24 24" fill="none" stroke="currentColor" stroke-width="2" stroke-linecap="round" stroke-linejoin="round">
      <rect x="2" y="2" width="20" height="8" rx="2" ry="2"/>
      <rect x="2" y="14" width="20" height="8" rx="2" ry="2"/>
      <line x1="6" y1="6" x2="6.01" y2="6"/>
      <line x1="6" y1="18" x2="6.01" y2="18"/>
    </symbol>

    <!-- Port Forwarding -->
    <symbol id="icon-port" viewBox="0 0 24 24" fill="none" stroke="currentColor" stroke-width="2" stroke-linecap="round" stroke-linejoin="round">
      <polyline points="17 1 21 5 17 9"/>
      <path d="M3 11V9a4 4 0 0 1 4-4h14"/>
      <polyline points="7 23 3 19 7 15"/>
      <path d="M21 13v2a4 4 0 0 1-4 4H3"/>
    </symbol>

    <!-- Logs -->
    <symbol id="icon-logs" viewBox="0 0 24 24" fill="none" stroke="currentColor" stroke-width="2" stroke-linecap="round" stroke-linejoin="round">
      <path d="M14 2H6a2 2 0 0 0-2 2v16a2 2 0 0 0 2 2h12a2 2 0 0 0 2-2V8z"/>
      <polyline points="14 2 14 8 20 8"/>
      <line x1="16" y1="13" x2="8" y2="13"/>
      <line x1="16" y1="17" x2="8" y2="17"/>
    </symbol>

    <!-- Users -->
    <symbol id="icon-users" viewBox="0 0 24 24" fill="none" stroke="currentColor" stroke-width="2" stroke-linecap="round" stroke-linejoin="round">
      <path d="M17 21v-2a4 4 0 0 0-4-4H5a4 4 0 0 0-4 4v2"/>
      <circle cx="9" cy="7" r="4"/>
      <path d="M23 21v-2a4 4 0 0 0-3-3.87"/>
      <path d="M16 3.13a4 4 0 0 1 0 7.75"/>
    </symbol>

    <!-- Settings -->
    <symbol id="icon-settings" viewBox="0 0 24 24" fill="none" stroke="currentColor" stroke-width="2" stroke-linecap="round" stroke-linejoin="round">
      <circle cx="12" cy="12" r="3"/>
      <path d="M19.4 15a1.65 1.65 0 0 0 .33 1.82l.06.06a2 2 0 0 1-2.83 2.83l-.06-.06a1.65 1.65 0 0 0-1.82-.33 1.65 1.65 0 0 0-1 1.51V21a2 2 0 0 1-4 0v-.09A1.65 1.65 0 0 0 9 19.4a1.65 1.65 0 0 0-1.82.33l-.06.06a2 2 0 0 1-2.83-2.83l.06-.06A1.65 1.65 0 0 0 4.68 15a1.65 1.65 0 0 0-1.51-1H3a2 2 0 0 1 0-4h.09A1.65 1.65 0 0 0 4.6 9a1.65 1.65 0 0 0-.33-1.82l-.06-.06a2 2 0 0 1 2.83-2.83l.06.06A1.65 1.65 0 0 0 9 4.68a1.65 1.65 0 0 0 1-1.51V3a2 2 0 0 1 4 0v.09a1.65 1.65 0 0 0 1 1.51 1.65 1.65 0 0 0 1.82-.33l.06-.06a2 2 0 0 1 2.83 2.83l-.06.06A1.65 1.65 0 0 0 19.4 9a1.65 1.65 0 0 0 1.51 1H21a2 2 0 0 1 0 4h-.09a1.65 1.65 0 0 0-1.51 1z"/>
    </symbol>

    <!-- System Info -->
    <symbol id="icon-system" viewBox="0 0 24 24" fill="none" stroke="currentColor" stroke-width="2" stroke-linecap="round" stroke-linejoin="round">
      <rect x="2" y="3" width="20" height="14" rx="2" ry="2"/>
      <line x1="8" y1="21" x2="16" y2="21"/>
      <line x1="12" y1="17" x2="12" y2="21"/>
    </symbol>

    <!-- Nodes -->
    <symbol id="icon-nodes" viewBox="0 0 24 24" fill="none" stroke="currentColor" stroke-width="2" stroke-linecap="round" stroke-linejoin="round">
      <rect x="16" y="16" width="6" height="6" rx="1"/>
      <rect x="2" y="2" width="6" height="6" rx="1"/>
      <rect x="9" y="9" width="6" height="6" rx="1"/>
      <path d="M5 8v1a4 4 0 0 0 4 4h1"/>
      <path d="M19 8v1a4 4 0 0 1-4 4h-1"/>
    </symbol>

    <!-- Activity / Notifications -->
    <symbol id="icon-activity" viewBox="0 0 24 24" fill="none" stroke="currentColor" stroke-width="2" stroke-linecap="round" stroke-linejoin="round">
      <polyline points="22 12 18 12 15 21 9 3 6 12 2 12"/>
    </symbol>

    <!-- Backup -->
    <symbol id="icon-backup" viewBox="0 0 24 24" fill="none" stroke="currentColor" stroke-width="2" stroke-linecap="round" stroke-linejoin="round">
      <path d="M21 15v4a2 2 0 0 1-2 2H5a2 2 0 0 1-2-2v-4"/>
      <polyline points="7 10 12 15 17 10"/>
      <line x1="12" y1="15" x2="12" y2="3"/>
    </symbol>

    <!-- Star / Favorite -->
    <symbol id="icon-star" viewBox="0 0 24 24" fill="none" stroke="currentColor" stroke-width="2" stroke-linecap="round" stroke-linejoin="round">
      <polygon points="12 2 15.09 8.26 22 9.27 17 14.14 18.18 21.02 12 17.77 5.82 21.02 7 14.14 2 9.27 8.91 8.26 12 2"/>
    </symbol>

    <!-- CPU -->
    <symbol id="icon-cpu" viewBox="0 0 24 24" fill="none" stroke="currentColor" stroke-width="2" stroke-linecap="round" stroke-linejoin="round">
      <rect x="4" y="4" width="16" height="16" rx="2" ry="2"/>
      <rect x="9" y="9" width="6" height="6"/>
      <line x1="9" y1="1" x2="9" y2="4"/>
      <line x1="15" y1="1" x2="15" y2="4"/>
      <line x1="9" y1="20" x2="9" y2="23"/>
      <line x1="15" y1="20" x2="15" y2="23"/>
      <line x1="20" y1="9" x2="23" y2="9"/>
      <line x1="20" y1="14" x2="23" y2="14"/>
      <line x1="1" y1="9" x2="4" y2="9"/>
      <line x1="1" y1="14" x2="4" y2="14"/>
    </symbol>

    <!-- RAM / Memory -->
    <symbol id="icon-ram" viewBox="0 0 24 24" fill="none" stroke="currentColor" stroke-width="2" stroke-linecap="round" stroke-linejoin="round">
      <rect x="4" y="4" width="16" height="16" rx="2" ry="2"/>
      <line x1="8" y1="8" x2="8" y2="16"/>
      <line x1="12" y1="8" x2="12" y2="16"/>
      <line x1="16" y1="8" x2="16" y2="16"/>
    </symbol>

    <!-- Disk -->
    <symbol id="icon-disk" viewBox="0 0 24 24" fill="none" stroke="currentColor" stroke-width="2" stroke-linecap="round" stroke-linejoin="round">
      <ellipse cx="12" cy="12" rx="10" ry="10"/>
      <circle cx="12" cy="12" r="3"/>
    </symbol>

    <!-- Network -->
    <symbol id="icon-network" viewBox="0 0 24 24" fill="none" stroke="currentColor" stroke-width="2" stroke-linecap="round" stroke-linejoin="round">
      <line x1="1" y1="1" x2="23" y2="23"/>
      <path d="M16.72 7.28a11 11 0 0 1 3.1 5"/>
      <path d="M10.28 3.88A11 11 0 0 1 21 12"/>
      <path d="M3.88 10.28a11 11 0 0 1 3.1-5"/>
      <path d="M7.28 16.72a11 11 0 0 1-3.1-5"/>
      <path d="M13.72 20.12A11 11 0 0 1 3 12"/>
      <path d="M20.12 13.72a11 11 0 0 1-3.1 5"/>
    </symbol>

    <!-- Globe / Web -->
    <symbol id="icon-globe" viewBox="0 0 24 24" fill="none" stroke="currentColor" stroke-width="2" stroke-linecap="round" stroke-linejoin="round">
      <circle cx="12" cy="12" r="10"/>
      <line x1="2" y1="12" x2="22" y2="12"/>
      <path d="M12 2a15.3 15.3 0 0 1 4 10 15.3 15.3 0 0 1-4 10 15.3 15.3 0 0 1-4-10 15.3 15.3 0 0 1 4-10z"/>
    </symbol>

    <!-- Terminal -->
    <symbol id="icon-terminal" viewBox="0 0 24 24" fill="none" stroke="currentColor" stroke-width="2" stroke-linecap="round" stroke-linejoin="round">
      <polyline points="4 17 10 11 4 5"/>
      <line x1="12" y1="19" x2="20" y2="19"/>
    </symbol>

    <!-- Shield / Security -->
    <symbol id="icon-shield" viewBox="0 0 24 24" fill="none" stroke="currentColor" stroke-width="2" stroke-linecap="round" stroke-linejoin="round">
      <path d="M12 22s8-4 8-10V5l-8-3-8 3v7c0 6 8 10 8 10z"/>
    </symbol>

    <!-- Clock -->
    <symbol id="icon-clock" viewBox="0 0 24 24" fill="none" stroke="currentColor" stroke-width="2" stroke-linecap="round" stroke-linejoin="round">
      <circle cx="12" cy="12" r="10"/>
      <polyline points="12 6 12 12 16 14"/>
    </symbol>

    <!-- Trash/Delete -->
    <symbol id="icon-trash" viewBox="0 0 24 24" fill="none" stroke="currentColor" stroke-width="2" stroke-linecap="round" stroke-linejoin="round">
      <polyline points="3 6 5 6 21 6"/>
      <path d="M19 6v14a2 2 0 0 1-2 2H7a2 2 0 0 1-2-2V6m3 0V4a2 2 0 0 1 2-2h4a2 2 0 0 1 2 2v2"/>
    </symbol>

    <!-- Plus -->
    <symbol id="icon-plus" viewBox="0 0 24 24" fill="none" stroke="currentColor" stroke-width="2" stroke-linecap="round" stroke-linejoin="round">
      <line x1="12" y1="5" x2="12" y2="19"/>
      <line x1="5" y1="12" x2="19" y2="12"/>
    </symbol>

    <!-- Edit -->
    <symbol id="icon-edit" viewBox="0 0 24 24" fill="none" stroke="currentColor" stroke-width="2" stroke-linecap="round" stroke-linejoin="round">
      <path d="M11 4H4a2 2 0 0 0-2 2v14a2 2 0 0 0 2 2h14a2 2 0 0 0 2-2v-7"/>
      <path d="M18.5 2.5a2.121 2.121 0 0 1 3 3L12 15l-4 1 1-4 9.5-9.5z"/>
    </symbol>

    <!-- Power -->
    <symbol id="icon-power" viewBox="0 0 24 24" fill="none" stroke="currentColor" stroke-width="2" stroke-linecap="round" stroke-linejoin="round">
      <path d="M18.36 6.64a9 9 0 1 1-12.73 0"/>
      <line x1="12" y1="2" x2="12" y2="12"/>
    </symbol>

    <!-- Refresh / Restart -->
    <symbol id="icon-refresh" viewBox="0 0 24 24" fill="none" stroke="currentColor" stroke-width="2" stroke-linecap="round" stroke-linejoin="round">
      <polyline points="23 4 23 10 17 10"/>
      <polyline points="1 20 1 14 7 14"/>
      <path d="M3.51 9a9 9 0 0 1 14.85-3.36L23 10M1 14l4.64 4.36A9 9 0 0 0 20.49 15"/>
    </symbol>

    <!-- Eye / View -->
    <symbol id="icon-eye" viewBox="0 0 24 24" fill="none" stroke="currentColor" stroke-width="2" stroke-linecap="round" stroke-linejoin="round">
      <path d="M1 12s4-8 11-8 11 8 11 8-4 8-11 8-11-8-11-8z"/>
      <circle cx="12" cy="12" r="3"/>
    </symbol>

    <!-- Home -->
    <symbol id="icon-home" viewBox="0 0 24 24" fill="none" stroke="currentColor" stroke-width="2" stroke-linecap="round" stroke-linejoin="round">
      <path d="M3 9l9-7 9 7v11a2 2 0 0 1-2 2H5a2 2 0 0 1-2-2z"/>
      <polyline points="9 22 9 12 15 12 15 22"/>
    </symbol>

    <!-- Download -->
    <symbol id="icon-download" viewBox="0 0 24 24" fill="none" stroke="currentColor" stroke-width="2" stroke-linecap="round" stroke-linejoin="round">
      <path d="M21 15v4a2 2 0 0 1-2 2H5a2 2 0 0 1-2-2v-4"/>
      <polyline points="7 10 12 15 17 10"/>
      <line x1="12" y1="15" x2="12" y2="3"/>
    </symbol>

    <!-- Upload -->
    <symbol id="icon-upload" viewBox="0 0 24 24" fill="none" stroke="currentColor" stroke-width="2" stroke-linecap="round" stroke-linejoin="round">
      <path d="M21 15v4a2 2 0 0 1-2 2H5a2 2 0 0 1-2-2v-4"/>
      <polyline points="17 8 12 3 7 8"/>
      <line x1="12" y1="3" x2="12" y2="15"/>
    </symbol>

    <!-- Check -->
    <symbol id="icon-check" viewBox="0 0 24 24" fill="none" stroke="currentColor" stroke-width="2" stroke-linecap="round" stroke-linejoin="round">
      <polyline points="20 6 9 17 4 12"/>
    </symbol>

    <!-- X / Close -->
    <symbol id="icon-x" viewBox="0 0 24 24" fill="none" stroke="currentColor" stroke-width="2" stroke-linecap="round" stroke-linejoin="round">
      <line x1="18" y1="6" x2="6" y2="18"/>
      <line x1="6" y1="6" x2="18" y2="18"/>
    </symbol>

    <!-- Menu -->
    <symbol id="icon-menu" viewBox="0 0 24 24" fill="none" stroke="currentColor" stroke-width="2" stroke-linecap="round" stroke-linejoin="round">
      <line x1="3" y1="12" x2="21" y2="12"/>
      <line x1="3" y1="6" x2="21" y2="6"/>
      <line x1="3" y1="18" x2="21" y2="18"/>
    </symbol>

    <!-- Bell -->
    <symbol id="icon-bell" viewBox="0 0 24 24" fill="none" stroke="currentColor" stroke-width="2" stroke-linecap="round" stroke-linejoin="round">
      <path d="M18 8A6 6 0 0 0 6 8c0 7-3 9-3 9h18s-3-2-3-9"/>
      <path d="M13.73 21a2 2 0 0 1-3.46 0"/>
    </symbol>

    <!-- Logout -->
    <symbol id="icon-logout" viewBox="0 0 24 24" fill="none" stroke="currentColor" stroke-width="2" stroke-linecap="round" stroke-linejoin="round">
      <path d="M9 21H5a2 2 0 0 1-2-2V5a2 2 0 0 1 2-2h4"/>
      <polyline points="16 17 21 12 16 7"/>
      <line x1="21" y1="12" x2="9" y2="12"/>
    </symbol>

    <!-- Profile / User -->
    <symbol id="icon-user" viewBox="0 0 24 24" fill="none" stroke="currentColor" stroke-width="2" stroke-linecap="round" stroke-linejoin="round">
      <path d="M20 21v-2a4 4 0 0 0-4-4H8a4 4 0 0 0-4 4v2"/>
      <circle cx="12" cy="7" r="4"/>
    </symbol>

    <!-- Key -->
    <symbol id="icon-key" viewBox="0 0 24 24" fill="none" stroke="currentColor" stroke-width="2" stroke-linecap="round" stroke-linejoin="round">
      <path d="M21 2l-2 2m-7.61 7.61a5.5 5.5 0 1 1-7.778 7.778 5.5 5.5 0 0 1 7.777-7.777zm0 0L15.5 7.5m0 0l3 3L22 7l-3-3m-3.5 3.5L19 4"/>
    </symbol>

    <!-- Hamburger -->
    <symbol id="icon-hamburger" viewBox="0 0 24 24" fill="none" stroke="currentColor" stroke-width="2" stroke-linecap="round" stroke-linejoin="round">
      <line x1="3" y1="6" x2="21" y2="6"/>
      <line x1="3" y1="12" x2="21" y2="12"/>
      <line x1="3" y1="18" x2="21" y2="18"/>
    </symbol>

    <!-- Expiry -->
    <symbol id="icon-expiry" viewBox="0 0 24 24" fill="none" stroke="currentColor" stroke-width="2" stroke-linecap="round" stroke-linejoin="round">
      <circle cx="12" cy="12" r="10"/>
      <polyline points="12 6 12 12 16 14"/>
    </symbol>

    <!-- Dollar / Usage -->
    <symbol id="icon-dollar" viewBox="0 0 24 24" fill="none" stroke="currentColor" stroke-width="2" stroke-linecap="round" stroke-linejoin="round">
      <line x1="12" y1="1" x2="12" y2="23"/>
      <path d="M17 5H9.5a3.5 3.5 0 0 0 0 7h5a3.5 3.5 0 0 1 0 7H6"/>
    </symbol>
  </defs>
</svg>